# xmcd
#
# Track frame offsets:
#	150
#	21415
#	37798
#
# Disc length: 715 seconds
#
# Revision: 3
# Processed by: cddbd v1.5.2PL0 Copyright (c) Steve Scherf et al.
# Submitted via: EasyCDDAExtractor 11.1.0.1
#
DISCID=1902c903
DTITLE=United Underworld - Astral Pilot
DYEAR=1900
DGENRE=Rock and Roll
TTITLE0=Astral Pilot
TTITLE1=eQuality
TTITLE2=Strange
EXTD=
EXTT0=
EXTT1=
EXTT2=
PLAYORDER=
